<svg xmlns="http://www.w3.org/2000/svg" xmlns:xlink="http://www.w3.org/1999/xlink" width="1101" height="437" viewBox="0 0 1101 437">
  <defs>
    <clipPath id="clip-_PC_">
      <rect width="1101" height="437"/>
    </clipPath>
  </defs>
  <g id="_PC_" data-name="【PC】" clip-path="url(#clip-_PC_)">
    <rect width="1101" height="437" fill="#fff"/>
    <path id="パス_838" data-name="パス 838" d="M12.163,0H377.045c6.717,0,12-.307,12.163,10.172V101H0V12.567C.049.292,5.445,0,12.163,0Z" transform="translate(712 -0.223)" fill="#c7d5fb"/>
    <text id="運用コスト" transform="translate(71 136.777)" font-size="20" font-family="SourceHanSansJP-Bold, Source Han Sans JP" font-weight="700"><tspan x="32.5" y="23">運用コスト</tspan></text>
    <text id="学習効率_短期_" data-name="学習効率(短期)" transform="translate(71 245.777)" font-size="20" font-family="SourceHanSansJP-Bold, Source Han Sans JP" font-weight="700"><tspan x="14.94" y="23">学習効率(短期)</tspan></text>
    <text id="学習効率_中期_" data-name="学習効率(中期)" transform="translate(71 356.777)" font-size="20" font-family="SourceHanSansJP-Bold, Source Han Sans JP" font-weight="700"><tspan x="14.94" y="23">学習効率(中期)</tspan></text>
    <g id="グループ_1663" data-name="グループ 1663" transform="translate(-41.757 -2723.223)">
      <path id="長方形_1202" data-name="長方形 1202" d="M10,0H240a10,10,0,0,1,10,10V66a0,0,0,0,1,0,0H0a0,0,0,0,1,0,0V10A10,10,0,0,1,10,0Z" transform="translate(309.757 2758)" fill="none"/>
    </g>
    <g id="グループ_1664" data-name="グループ 1664" transform="translate(776 44.777)">
      <path id="長方形_1203" data-name="長方形 1203" d="M10,0H117a10,10,0,0,1,10,10V49a0,0,0,0,1,0,0H0a0,0,0,0,1,0,0V10A10,10,0,0,1,10,0Z" fill="none"/>
      <text id="M2T" transform="translate(28.458 7.928)" font-size="22" font-family="SourceHanSansJP-Bold, Source Han Sans JP" font-weight="700"><tspan x="12.164" y="26">M2T</tspan></text>
    </g>
    <g id="グループ_1587" data-name="グループ 1587" transform="translate(944.982 126.777)">
      <g id="グループ_1585" data-name="グループ 1585" transform="translate(0.018 0)">
        <ellipse id="楕円形_6" data-name="楕円形 6" cx="27" cy="27.159" rx="27" ry="27.159" transform="translate(0 0)" fill="#ff4040"/>
        <ellipse id="楕円形_7" data-name="楕円形 7" cx="21" cy="21.159" rx="21" ry="21.159" transform="translate(6 6)" fill="#fff"/>
      </g>
      <g id="グループ_1586" data-name="グループ 1586" transform="translate(11.23 10.192)">
        <ellipse id="楕円形_6-2" data-name="楕円形 6" cx="16" cy="17" rx="16" ry="17" transform="translate(-0.212 -0.192)" fill="#ff4040"/>
        <circle id="楕円形_7-2" data-name="楕円形 7" cx="11" cy="11" r="11" transform="translate(4.788 5.808)" fill="#fff"/>
      </g>
    </g>
    <g id="グループ_1764" data-name="グループ 1764" transform="translate(-45 -4347.223)">
      <g id="グループ_1585-2" data-name="グループ 1585" transform="translate(794 4579.958)">
        <circle id="楕円形_6-3" data-name="楕円形 6" cx="27" cy="27" r="27" transform="translate(196 0.042)" fill="#ff4040"/>
        <circle id="楕円形_7-3" data-name="楕円形 7" cx="20" cy="20" r="20" transform="translate(203 7.042)" fill="#fff"/>
      </g>
    </g>
    <g id="グループ_1665" data-name="グループ 1665" transform="translate(896 44.777)">
      <path id="長方形_1203-2" data-name="長方形 1203" d="M10,0H136a10,10,0,0,1,10,10V49a0,0,0,0,1,0,0H0a0,0,0,0,1,0,0V10A10,10,0,0,1,10,0Z" fill="none"/>
      <text id="M4T" transform="translate(37.46 8.163)" font-size="22" font-family="SourceHanSansJP-Bold, Source Han Sans JP" font-weight="700"><tspan x="12.554" y="26">M4T</tspan></text>
    </g>
    <text id="MultiTrack_" data-name="MultiTrack
" transform="translate(840.159 13.94)" font-size="22" font-family="SourceHanSansJP-Bold, Source Han Sans JP" font-weight="700"><tspan x="5.426" y="26">MultiTrack</tspan></text>
    <path id="パス_837" data-name="パス 837" d="M12.438,0H385.563C392.432,0,398,.761,398,1.7V70H0V1.7C0,.761,5.568,0,12.438,0Z" transform="translate(314 30.777)" fill="#fff8f8"/>
    <path id="多角形_5" data-name="多角形 5" d="M29.5,0,59,50H0Z" transform="translate(479 128.777)" fill="#4a4a4a"/>
    <path id="多角形_6" data-name="多角形 6" d="M18,0,36,30H0Z" transform="translate(490 141.777)" fill="#fff"/>
    <path id="多角形_5-2" data-name="多角形 5" d="M29.5,0,59,50H0Z" transform="translate(479 351.777)" fill="#4a4a4a"/>
    <path id="多角形_6-2" data-name="多角形 6" d="M18,0,36,31H0Z" transform="translate(490 364.777)" fill="#fff"/>
    <g id="グループ_1763" data-name="グループ 1763" transform="translate(-44 -4348.223)">
      <g id="グループ_1585-3" data-name="グループ 1585" transform="translate(527 4583)">
        <ellipse id="楕円形_6-4" data-name="楕円形 6" cx="26" cy="25.5" rx="26" ry="25.5" transform="translate(0 1)" fill="#4a4a4a"/>
      </g>
      <g id="グループ_1762" data-name="グループ 1762" transform="translate(-1)">
        <ellipse id="楕円形_7-4" data-name="楕円形 7" cx="20" cy="19.5" rx="20" ry="19.5" transform="translate(534 4590)" fill="#fff"/>
        <circle id="楕円形_6-5" data-name="楕円形 6" cx="15" cy="15" r="15" transform="translate(539 4595)" fill="#4a4a4a"/>
        <circle id="楕円形_7-5" data-name="楕円形 7" cx="10" cy="10" r="10" transform="translate(544 4600)" fill="#fff"/>
      </g>
    </g>
    <text id="従来の研修" transform="translate(438 51.777)" font-size="20" font-family="SourceHanSansJP-Bold, Source Han Sans JP" font-weight="700"><tspan x="18.5" y="23">従来の研修</tspan></text>
    <path id="パス_796" data-name="パス 796" d="M0,0H1101" transform="translate(0 100.777)" fill="none" stroke="#dedede" stroke-width="1"/>
    <path id="パス_797" data-name="パス 797" d="M0,0H1101" transform="translate(0 207.777)" fill="none" stroke="#dedede" stroke-width="1"/>
    <path id="パス_798" data-name="パス 798" d="M0,0H1101.208" transform="translate(0 315.777)" fill="none" stroke="#dedede" stroke-width="1"/>
    <path id="パス_799" data-name="パス 799" d="M0,0H1101.208" transform="translate(0 436.777)" fill="none" stroke="#dedede" stroke-width="1"/>
    <path id="パス_846" data-name="パス 846" d="M0,0H336" transform="translate(711.546 100.777) rotate(90)" fill="none" stroke="#dedede" stroke-width="1"/>
    <path id="パス_849" data-name="パス 849" d="M0,0H336" transform="translate(313.546 100.777) rotate(90)" fill="none" stroke="#dedede" stroke-width="1"/>
    <g id="グループ_1760" data-name="グループ 1760" transform="translate(945.982 349.777)">
      <g id="グループ_1585-4" data-name="グループ 1585" transform="translate(0.018 0)">
        <ellipse id="楕円形_6-6" data-name="楕円形 6" cx="27" cy="26.5" rx="27" ry="26.5" transform="translate(0 0)" fill="#ff4040"/>
        <ellipse id="楕円形_7-6" data-name="楕円形 7" cx="21" cy="20.5" rx="21" ry="20.5" transform="translate(6 6)" fill="#fff"/>
      </g>
      <g id="グループ_1586-2" data-name="グループ 1586" transform="translate(11.23 10.192)">
        <ellipse id="楕円形_6-7" data-name="楕円形 6" cx="16" cy="17" rx="16" ry="17" transform="translate(-0.212 -0.192)" fill="#ff4040"/>
        <circle id="楕円形_7-7" data-name="楕円形 7" cx="11" cy="11" r="11" transform="translate(4.788 5.808)" fill="#fff"/>
      </g>
    </g>
    <g id="グループ_1765" data-name="グループ 1765" transform="translate(-174 -4347.223)">
      <g id="グループ_1585-5" data-name="グループ 1585" transform="translate(794 4579.958)">
        <circle id="楕円形_6-8" data-name="楕円形 6" cx="27" cy="27" r="27" transform="translate(196 0.042)" fill="#ff4040"/>
        <circle id="楕円形_7-8" data-name="楕円形 7" cx="20" cy="20" r="20" transform="translate(203 7.042)" fill="#fff"/>
      </g>
    </g>
    <g id="グループ_1766" data-name="グループ 1766" transform="translate(-174 -4451.223)">
      <g id="グループ_1585-6" data-name="グループ 1585" transform="translate(794 4579.958)">
        <circle id="楕円形_6-9" data-name="楕円形 6" cx="27" cy="27" r="27" transform="translate(196 0.042)" fill="#ff4040"/>
        <circle id="楕円形_7-9" data-name="楕円形 7" cx="20" cy="20" r="20" transform="translate(203 7.042)" fill="#fff"/>
      </g>
    </g>
    <g id="グループ_1767" data-name="グループ 1767" transform="translate(-174 -4231.223)">
      <g id="グループ_1585-7" data-name="グループ 1585" transform="translate(794 4579.958)">
        <circle id="楕円形_6-10" data-name="楕円形 6" cx="27" cy="27" r="27" transform="translate(196 0.042)" fill="#ff4040"/>
        <circle id="楕円形_7-10" data-name="楕円形 7" cx="20" cy="20" r="20" transform="translate(203 7.042)" fill="#fff"/>
      </g>
    </g>
  </g>
</svg>
